<svg width="100%" height="100%" viewBox="0 0 3827 1436" fill="none" xmlns="http://www.w3.org/2000/svg">
<path d="M603.435 97.6665C611.086 98.6042 618.715 99.752 626.39 100.435C661.04 103.488 695.405 108.349 729.066 117.216C818.223 140.681 897.502 182.436 964.462 246.2C1031.32 309.867 1075.49 386.482 1093.39 477.433C1101.77 520.176 1104.11 563.88 1100.36 607.273C1096.14 657.459 1085.52 706.055 1065.59 752.393C1039.84 812.242 1003.61 864.649 954.267 907.679C941.964 918.399 934.222 931.917 931.724 948.083C928.761 967.257 923.473 985.629 914.155 1002.73C906.174 1017.41 893.946 1026.6 877.57 1030.05C874.136 1030.69 870.651 1031.03 867.157 1031.05C860.661 1031.21 854.157 1031.01 847.653 1031.13C838.056 1031.18 828.788 1034.64 821.502 1040.89C812.493 1048.46 804.672 1057.34 798.299 1067.23C789.582 1080.89 786.589 1095.92 788.547 1111.73C790.558 1127.35 790.885 1143.14 789.522 1158.83C788.607 1168.73 784.533 1176.36 775.906 1181.64C772.138 1184.1 768.575 1186.86 765.254 1189.89C761.18 1193.41 760.085 1197.76 762.808 1202.65C765.862 1208.14 766.379 1214.03 765.569 1220.1C764.632 1227.33 765.865 1234.67 769.11 1241.2C778.862 1261.85 779.867 1283.03 772.231 1304.57C766.462 1320.85 764.361 1337.44 766.649 1354.71C769.83 1378.65 762.943 1399.68 746.89 1417.72C740.724 1424.65 732.931 1429.94 724.212 1433.11C721.962 1433.96 719.711 1435.01 717.461 1435.97H697.956C697.356 1435.57 696.801 1434.88 696.156 1434.79C675.856 1431.88 655.534 1429.54 634.927 1430.73C619.713 1431.59 604.462 1432.15 589.234 1432.05C571.905 1431.94 555.078 1428 538.222 1424.29C520.968 1420.54 507.465 1411.44 497.03 1397.59C486.898 1384.24 475.693 1371.74 463.528 1360.2C453.73 1350.8 443.355 1342.2 430.235 1337.74C420.415 1334.4 412.906 1328.23 406.837 1319.86C396.242 1305.17 381.969 1293.53 365.45 1286.1C350.679 1279.35 335.728 1273.05 320.808 1266.67C302.406 1258.8 291.618 1245.11 289.795 1225.14C288.73 1213.47 288.73 1201.69 288.453 1189.95C288.198 1178.9 284.514 1169.31 276.367 1161.85C269.556 1155.62 262.767 1149.1 255.062 1144.16C203.053 1110.56 159.041 1068.39 120.669 1020.07C87.0391 977.692 59.0577 931.902 40.1909 881.145C18.8261 823.652 7.18352 763.916 3.18511 702.695C2.54746 693.04 1.2796 683.43 0.296875 673.798V657.294C1.24209 649.417 2.25482 641.541 3.11002 633.671C5.36053 613.072 6.5458 592.299 9.86156 571.88C22.1525 495.394 50.6839 422.429 93.5357 357.893C151.164 270.694 225.993 202.938 320.312 157.2C394.624 121.192 472.942 101.342 555.589 98.9643C559.039 98.8668 562.468 98.1166 565.903 97.6665H603.435ZM830.189 379.528V379.393H863.196C868.192 379.393 873.204 379.236 878.2 379.453C885.611 379.776 888.807 384.119 887.322 391.456C887.082 392.679 886.789 393.894 886.474 395.102C858.388 503.157 830.329 611.219 802.297 719.288C793.648 752.904 785.966 786.766 778.172 820.561C774.742 835.225 774.384 850.44 777.122 865.249C779.057 875.692 785.554 881.31 796.026 882.331C813.527 884.041 830.369 881.85 846.557 874.619C860.811 868.257 874.029 860.328 885.806 850.051C900.577 837.288 913.952 822.995 925.708 807.411C965.295 754.449 984.454 693.723 991.858 628.96C996.134 591.542 993.936 554.101 987.732 516.892C977.327 454.403 951.724 398.65 913.465 348.561C895.041 324.488 871.321 305.899 847.503 287.707C818.246 265.397 785.238 249.816 751.008 236.883C709.561 221.242 666.591 212.735 622.429 209.712C572.535 206.299 522.994 208.459 473.895 218.242C437.639 225.473 403.641 239.404 370.236 254.7C343.23 267.04 319.337 284.324 296.209 302.756C263.721 328.729 235.415 359.537 212.28 394.104C189.895 427.352 172.476 463.367 158.89 501.191C151.006 523.149 147.09 546.096 141.397 568.594C139.165 577.822 137.637 587.206 136.828 596.665C134.983 616.057 133.25 635.479 132.327 654.931C130.822 689.931 133.174 724.99 139.341 759.475C148.156 809.774 165.485 857.297 190.45 901.918C194.839 909.757 200.105 917.109 204.523 924.925C213.537 941.107 224.537 956.099 237.268 969.553C253.157 986.177 269.458 1002.43 285.047 1019.33C296.897 1032.2 309.723 1044.15 323.411 1055.05C340.034 1068.28 356.501 1081.71 372.974 1095.12C375.669 1097.35 378.229 1099.74 380.641 1102.28C395.194 1117.28 406.822 1134.39 416.117 1153.11C420.34 1161.61 424.504 1170.17 429.297 1178.35C434.248 1186.82 439.05 1187.44 445.936 1180.31C450.992 1175.06 455.928 1174.07 462.695 1176.56C477.698 1182.12 479.199 1183.73 479.079 1199.86C478.968 1206.14 480.565 1212.33 483.7 1217.78C487.128 1223.71 493.174 1224.05 496.723 1218.2C498.155 1215.83 498.538 1212.55 498.606 1209.66C498.823 1200.97 502.904 1195.02 510.608 1191.3C514.18 1189.46 518.12 1188.46 522.134 1188.36C526.148 1188.26 530.133 1189.07 533.789 1190.73C536.984 1192.11 540.188 1193.85 543.541 1194.42C553.376 1196.05 563.263 1197.6 573.188 1198.37C580.217 1198.91 586.353 1200.72 591.717 1205.32C595.985 1208.98 600.719 1210.04 606.345 1208.32C613.892 1205.99 619.023 1209.37 620.493 1217.11C620.822 1219.34 620.95 1221.6 620.876 1223.86C620.936 1231.86 620.666 1239.87 621.026 1247.87C621.446 1257.27 628.183 1262.87 637.575 1261.96C645.137 1261.21 651.01 1257.46 653.944 1250.49C656.344 1244.81 657.694 1238.65 659.195 1232.62C659.997 1229.25 659.69 1225.62 660.432 1222.22C662.15 1214.34 669.832 1209.13 677.837 1210.06C684.348 1210.81 689.839 1215.47 689.224 1224.92C688.841 1230.92 689.059 1236.92 689.224 1242.92C689.337 1248.1 690.934 1250.31 694.535 1250.58C698.519 1250.88 700.364 1248.51 701.287 1244.96C702.6 1239.88 704.288 1234.9 705.345 1229.77C708.413 1214.48 718.383 1208.29 733.199 1213.07C738.825 1214.88 743.476 1214.04 747.565 1209.83C748.96 1208.4 750.461 1207.06 751.826 1205.6C755.359 1201.85 755.539 1199.82 752.516 1195.8C751.325 1194.19 749.919 1192.75 748.338 1191.53C741.654 1186.49 738.585 1179.77 738.323 1171.5C738.157 1166.5 737.738 1161.51 737.07 1156.56C735.495 1144.97 725.48 1140.34 715.69 1146.63C713.17 1148.24 710.934 1150.3 708.428 1151.94C696.846 1159.53 690.117 1169.51 692.345 1184C692.371 1184.25 692.371 1184.51 692.345 1184.75C691.737 1194.3 685.503 1200.72 675.954 1200.61C671.61 1200.55 666.756 1199.79 663.066 1197.7C655.316 1193.31 647.5 1191.83 638.663 1192.5C625.054 1193.54 612.091 1191.59 602.744 1179.92C602.396 1179.56 602.006 1179.25 601.582 1178.98C596.953 1175.53 594.785 1175.5 590.216 1178.91C588.214 1180.41 586.338 1182.08 584.26 1183.46C579.759 1186.46 576.616 1186.32 572.813 1182.71C570.293 1180.28 568.03 1177.6 566.061 1174.7C562.64 1169.69 558.357 1166.32 552.198 1165.47C547.172 1164.76 543.481 1161.93 540.9 1157.61C539.873 1155.89 538.822 1154.19 537.9 1152.43C531.801 1141.18 529.16 1140.74 520.871 1150.07C516.37 1155.1 510.976 1157.8 504.292 1156.99C499.852 1156.4 495.472 1155.43 491.201 1154.08C486.333 1152.58 483.197 1149.05 481.862 1144.13C481.112 1141.25 480.857 1138.23 480.046 1135.36C478.433 1129.6 473.107 1127.93 468.449 1131.69C466.116 1133.58 463.985 1135.7 461.795 1137.75C457.609 1141.68 452.913 1143.32 447.421 1140.75C441.75 1138.12 439.282 1133.46 439.8 1127.39C440.4 1120.43 441.3 1113.5 442.14 1106.55C443.78 1091.06 450.102 1076.44 460.264 1064.64C462.753 1061.82 464.636 1058.51 465.798 1054.94C466.959 1051.36 467.374 1047.58 467.016 1043.83C466.461 1036.33 466.041 1028.88 465.441 1021.4C464.825 1013.76 459.582 1007.9 451.937 1007.95C440.295 1007.99 429.252 1005.06 417.94 1003.15C397.91 999.755 379.726 991.818 361.572 983.416C345.856 976.18 331.613 966.101 319.562 953.687C311.708 945.63 303.644 937.783 295.714 929.794C283.126 917.108 272.279 903.05 264.282 887.072C246.803 852.159 234.883 815.715 232.295 776.294C230.322 746.189 230.847 716.145 235.183 686.528C240.622 649.44 249.436 612.937 266.36 578.976C267.149 577.413 267.821 575.793 268.371 574.13C274.679 554.408 284.874 536.622 296.449 519.683C308.137 502.549 320.905 486.158 332.84 469.196C346.816 449.317 364.055 432.79 383.739 418.77C447.954 373.009 518.725 350.339 598.108 358.704C641.851 363.317 678.879 381.869 709.554 413.241C720.056 423.983 730.093 435.124 737.31 448.462C738.968 451.522 741.233 453.713 744.999 453.368C749.118 453.023 751.001 450.329 752.021 446.616C752.876 443.488 753.926 440.412 754.849 437.299C759.298 422.206 763.559 407.052 768.24 392.034C771.33 382.109 775.036 379.596 785.118 379.551C800.189 379.476 815.185 379.528 830.189 379.528ZM375.277 730.646C373.927 748.701 376.025 766.848 381.459 784.118C394.572 826.3 420.423 856.135 464.345 868.01C480.234 872.316 496.423 872.391 512.694 871.993C529.498 871.581 545.109 867.162 560.142 859.758C582.647 848.663 601.597 832.984 618.768 814.935C671.595 759.423 698.136 692.95 700.642 616.755C701.504 590.424 693.688 566.178 680.642 543.238C665.444 516.51 642.383 499.653 614.95 487.725C611.482 486.304 607.866 485.274 604.17 484.657C585.018 481.079 565.911 481.657 546.842 485.505C519.753 490.989 496.303 504.177 474.983 521.108C442.028 547.274 418.607 580.852 400.933 618.75C384.475 654.068 373.56 690.617 375.277 730.646ZM745.862 932.915H746.117C746.117 920.912 746.267 908.909 746.08 896.906C745.84 881.31 733.327 869.608 717.753 870.418C706.23 871.025 696.598 875.894 688.841 884.424C666.531 908.954 647.312 935.683 632.189 965.224C629.193 970.98 626.942 977.093 625.49 983.416C622.234 998.292 623.884 1013.33 626.277 1028.13C627.71 1037.02 637.882 1042.05 646.824 1039.33C650.201 1038.39 653.454 1037.05 656.517 1035.35C668.309 1028.39 680.995 1027.43 694.213 1028.86C699.336 1029.42 703.965 1030.89 708.061 1033.98C711.257 1036.38 714.385 1038.92 717.813 1040.92C731.616 1048.94 747.212 1040.08 747.722 1024.14C747.932 1017.65 748.66 1011.17 748.668 1004.69C748.668 997.722 748.195 990.745 747.767 983.791C747.212 974.789 746.267 965.87 745.915 956.898C745.584 948.916 745.832 940.911 745.832 932.915H745.862Z" fill="white"/>
<path d="M1727.73 883.455C1727.44 977.749 1706.43 1060.7 1664.45 1141.51C1649.88 1169.54 1631 1196.38 1604.19 1220.79C1584.06 1239.23 1559.52 1255.6 1531.44 1269.34C1495.03 1287.13 1453.89 1297.11 1408.02 1299.28C1356.99 1301.69 1307.09 1298.22 1258.92 1286.94C1216.89 1277.09 1183.95 1260.16 1159.34 1236.7C1134.74 1213.24 1120.2 1187.44 1111.67 1160.17C1101.58 1127.92 1100.35 1095.31 1103.87 1062.61C1108.39 1020.37 1120.66 978.8 1133.03 937.26C1155.68 861.15 1182.73 785.612 1209.31 710.024C1221.91 674.25 1233.92 638.411 1246.67 602.686C1250.52 591.912 1255.94 581.355 1260.8 570.734C1261.78 568.644 1263.14 566.634 1264.87 564.745C1278.16 550.104 1291.52 535.491 1304.94 520.908C1310.25 515.175 1317.83 510.847 1326.71 507.172C1351.2 497.03 1377.38 489.593 1406.78 487.829C1481.05 483.365 1544.86 496.741 1595.09 532.472C1607.63 541.389 1616.87 551.641 1624.63 562.415C1638.67 581.981 1648.58 602.452 1658.13 622.998C1681.25 672.414 1699.42 722.69 1712.54 773.531C1722.59 813.001 1728.73 852.684 1727.73 883.455ZM1624.86 898.966C1624.82 863.193 1620.49 827.472 1611.92 792.107C1599.63 741.312 1581.42 691.323 1558.62 641.993C1550.57 624.572 1542.44 607.15 1530.57 590.583C1526.81 585.335 1522.54 579.956 1516.64 575.634C1488.37 554.902 1451.63 548.663 1410.3 553.987C1388.48 556.797 1371.06 564.451 1364.78 579.276C1359.13 592.581 1352.27 605.702 1347.44 619.111C1335.62 651.635 1324.8 684.295 1313.42 716.873C1287.75 790.37 1261.17 863.725 1238.79 937.652C1227.26 975.762 1215.8 1013.91 1209.53 1052.56C1204.67 1082.43 1204.33 1112.34 1212.19 1142.07C1217.46 1162.07 1227.04 1181.18 1243.99 1198.65C1257.99 1213.08 1277.8 1222.67 1303.53 1227.6C1335.07 1233.75 1368.22 1235.95 1401.12 1234.08C1424.96 1232.72 1446.58 1227.8 1465.74 1218.56C1479.52 1211.95 1492.13 1204.43 1503.38 1196.14C1527.65 1178.18 1544.24 1157.49 1557.17 1135.64C1589.53 1080.92 1608.03 1024.17 1617.52 966.251C1621.16 943.902 1622.48 921.396 1624.86 898.966Z" fill="white"/>
<path d="M3716.13 675.374C3712.19 676.24 3709.42 676.813 3706.71 677.567C3681.02 684.692 3656.15 693.812 3633.17 707.647C3625.75 712.12 3618.15 716.316 3610.54 720.425C3606.84 722.436 3605.62 725.21 3605.34 729.449C3602.58 766.022 3599.54 802.587 3596.55 839.143C3593.87 871.963 3590.48 904.748 3588.56 937.611C3584.55 1005.96 3581.36 1074.36 3577.64 1142.73C3577.34 1149.08 3576.24 1155.36 3574.36 1161.43C3566.71 1185.24 3543.47 1199.32 3518.02 1196.1C3494.73 1193.16 3475.91 1173.27 3474.03 1149.37C3473.72 1144.46 3473.69 1139.54 3473.95 1134.63C3476.75 1057.83 3480.4 981.059 3486.58 904.445C3490.42 856.94 3495.31 809.522 3499.38 762.035C3500.72 746.24 3502.78 730.385 3500.35 714.478C3500.18 713.343 3500.12 712.181 3499.92 711.011C3498.31 701.752 3496.07 699.993 3487.03 703.087C3476.95 706.555 3466.86 710.265 3457.41 715.128C3445.36 721.326 3433.84 728.591 3422.31 735.725C3405.35 746.206 3388.65 757.102 3371.67 767.539C3367.09 770.357 3364.74 773.339 3364.74 779.147C3364.38 821.043 3363.51 862.93 3363 904.843C3361.95 992.97 3361 1081.1 3360.13 1169.24C3359.99 1184.9 3356.41 1199.08 3345 1210.35C3330.08 1225.08 3312.12 1229.57 3292.34 1223.28C3272.55 1216.99 3260.68 1202.7 3257.18 1182.07C3256.32 1176.36 3255.96 1170.58 3256.12 1164.8C3257.14 1067.13 3258.22 969.466 3259.36 871.798C3260.39 786.845 3261.55 701.906 3262.83 616.981C3262.86 610.63 3263.71 604.309 3265.33 598.17C3272.17 573.585 3295.13 558.588 3321 561.267C3345.13 563.772 3364.45 583.624 3366.38 608.52C3367.11 618.004 3366.71 627.591 3366.8 637.127C3366.8 639.91 3366.8 642.692 3366.8 646.949C3370.74 644.73 3373.47 643.317 3376.07 641.748C3400.96 626.404 3426.6 612.673 3454.71 603.926C3488.14 593.523 3520.25 595.344 3550.83 613.193C3556.52 616.522 3561.75 620.657 3567.88 624.896C3574.17 621.428 3580.74 617.891 3587.21 614.181C3621.61 594.468 3658.63 581.717 3697.1 572.883C3713.57 569.086 3730.36 568.497 3746.93 572.64C3776.16 579.948 3796.22 598.161 3808.48 625.346C3816.64 643.481 3820.44 662.787 3822.25 682.378C3824.17 703.07 3825.71 723.858 3826.08 744.628C3827.29 812.244 3826.33 879.837 3823.18 947.407C3821.45 985.22 3820.53 1023.07 3818.9 1060.88C3817.45 1094.69 3815.86 1128.42 3813.7 1162.16C3811.22 1201.43 3771.76 1224.43 3737.86 1206.5C3719.33 1196.69 3710.29 1180.54 3710.12 1159.83C3710.01 1147.14 3711.34 1134.44 3711.85 1121.75C3714.01 1071.23 3716.44 1020.73 3718.14 970.197C3720.02 914.717 3721.8 859.298 3722.48 803.835C3722.87 770.894 3721.24 737.996 3720 705.09C3719.68 695.424 3717.58 685.828 3716.13 675.374Z" fill="white"/>
<path d="M2435.73 552.5L2420.2 553.84C2387.67 556.613 2355.19 559.672 2322.59 561.973C2302.03 563.424 2285 555.3 2273.79 536.447C2263.22 518.676 2262.59 499.665 2271.74 481.043C2280.77 462.671 2295.87 453.318 2315.08 451.609C2337.82 449.585 2360.6 448.06 2383.34 446.064C2400.29 444.576 2417.21 442.644 2435.11 440.814C2435.27 436.563 2435.55 433.014 2435.51 429.475C2434.97 377.435 2434.32 325.386 2433.85 273.29C2433.63 249.89 2433.35 226.472 2433.77 203.053C2434.33 170.56 2441.37 139.655 2455.94 110.932C2467.46 88.2254 2483.68 70.2688 2504.11 56.3601C2532.65 36.8971 2563.78 24.0696 2596.54 15.6227C2629.15 7.222 2662.11 -0.614915 2695.8 1.04859C2754.98 3.9782 2805.74 27.7016 2844.86 76.2112C2871.5 109.232 2887.01 147.936 2893.61 190.808C2899.49 229.032 2900.29 267.403 2896.96 305.913C2894.56 333.638 2877.83 353.619 2853.92 357.667C2846.85 358.931 2839.6 358.575 2832.66 356.622C2825.73 354.67 2819.26 351.166 2813.69 346.343C2808.12 341.521 2803.58 335.49 2800.36 328.651C2797.15 321.813 2795.34 314.323 2795.05 306.68C2794.76 299.638 2795.38 292.531 2795.86 285.48C2797.92 254.872 2796.51 224.531 2789.79 194.625C2785.24 174.423 2776.42 156.263 2762.56 141.818C2741.14 119.49 2714.78 108.215 2684.79 110.184C2651.83 112.303 2619.38 119.854 2588.59 132.567C2580.79 135.783 2573.41 140.081 2565.91 144.027C2547.08 153.943 2538.94 171.28 2537.81 192.555C2536.94 208.829 2537.3 225.196 2537.45 241.536C2537.95 299.74 2538.55 357.944 2539.22 416.148C2539.22 419.457 2539.57 422.765 2539.8 426.933C2549.86 425.556 2559.19 423.865 2568.58 423.089C2583.53 421.869 2598.55 420.141 2613.48 420.658C2636.31 421.444 2654.42 436.637 2661.16 458.401C2672.01 493.455 2648.66 529.95 2613.71 530.754C2590.48 531.281 2567.77 535.375 2544.86 538.388C2543.47 538.564 2542.11 538.943 2539.78 539.423V551.382C2539.78 722.935 2540.11 894.48 2539.78 1066.03C2539.67 1125.18 2538.04 1184.33 2537.12 1243.4C2536.87 1259.18 2532.24 1273.15 2521.3 1284.06C2505.78 1299.53 2487.55 1304.06 2467.59 1296.26C2447.64 1288.46 2436.49 1272.58 2433.96 1250.05C2433.58 1246.37 2433.45 1242.67 2433.56 1238.96C2438.15 1013.8 2435.15 788.653 2435.73 563.507C2435.74 560.208 2435.73 556.908 2435.73 552.5Z" fill="white"/>
<path d="M2775.08 929.984C2776.29 938.506 2777.04 947.122 2778.8 955.522C2782.16 971.62 2785.69 987.701 2789.86 1003.6C2800.08 1042.55 2822.97 1072.47 2856.47 1094.34C2882.42 1111.4 2912.21 1121.75 2943.15 1124.45C2971.14 1127 2996.27 1119.34 3019.36 1103.9C3034.34 1093.9 3047.39 1081.65 3059.97 1068.87C3071.73 1056.94 3083.23 1044.74 3095.17 1032.99C3108.11 1020.25 3123.65 1014.59 3141.84 1017.85C3150.2 1019.3 3158.08 1022.8 3164.76 1028.04C3171.44 1033.27 3176.72 1040.08 3180.13 1047.85C3183.54 1055.63 3184.97 1064.12 3184.3 1072.58C3183.63 1081.04 3180.87 1089.21 3176.28 1096.35C3174.13 1099.77 3171.63 1102.97 3168.82 1105.88C3150.38 1124.61 3132.22 1143.64 3113.18 1161.75C3092.26 1181.78 3068.07 1198.09 3041.66 1209.98C2998.25 1229.5 2953.1 1233.26 2906.86 1224.37C2850.51 1213.55 2800.97 1188.9 2759.13 1149.18C2722.4 1114.3 2700.35 1071.33 2687.12 1022.94C2671.93 967.346 2666.82 911.112 2673.47 853.899C2678.02 814.725 2686.77 776.374 2701.9 739.931C2732.32 666.654 2786.48 620.302 2863.44 600.659C2889.09 594.123 2915 590.257 2941.45 593.568C2979.71 598.289 3016.54 611.055 3049.51 631.026C3068.19 642.295 3082.45 658.176 3092.73 677.412C3104.96 700.341 3112.87 724.657 3114.77 750.715C3116.11 768.371 3113.12 786.088 3106.04 802.32C3103.5 808.447 3100.41 814.329 3096.8 819.891C3051.13 887.291 2989.42 929.377 2907.39 938.861C2873.79 942.765 2839.85 942.811 2806.23 939C2795.76 937.855 2785.98 934.683 2775.08 929.984ZM2780.06 841.919C2791.81 836.717 2801.99 834.507 2813 835.2C2832.28 836.397 2851.61 837.385 2870.92 837.437C2886.52 837.492 2902.08 835.625 2917.23 831.88C2949.91 823.766 2975.86 805.18 2997.27 779.98C3013.18 761.265 3014.93 760.675 3004.49 733.308C3001.23 724.761 2995.67 718.311 2987.16 715.008C2973.2 709.59 2959.22 704.12 2944.98 699.552C2930.97 695.053 2916.38 695.044 2902.17 698.46C2890.37 701.197 2878.75 704.636 2867.37 708.758C2843.64 717.574 2825.21 733.083 2811.22 754.33C2798.6 773.505 2791.87 794.83 2786.13 816.658C2784.06 824.416 2782.37 832.253 2780.06 841.936V841.919Z" fill="white"/>
<path d="M1822.32 709.252C1822.32 693.952 1822.1 678.643 1822.36 663.308C1823.51 595.692 1824.1 528.119 1826.21 460.564C1828.93 374.83 1832.89 289.131 1836.54 203.423C1837.69 176.672 1839.61 149.842 1841.16 123.038C1842.75 95.8444 1863.53 74.632 1889.8 73.3751C1917.63 72.0401 1940.36 90.6431 1944.01 118.591C1945.19 128.337 1945.39 138.176 1944.59 147.961C1938.98 224.598 1935.09 301.325 1932.91 378.142C1931.02 444.544 1929.32 510.955 1927.81 577.375C1926.49 633.722 1926.02 690.069 1924.16 746.311C1922.33 801.444 1919.17 856.534 1916.64 911.641C1914.59 956.655 1912.56 1001.67 1910.57 1046.68C1908.14 1102.38 1905.83 1158.08 1903.25 1213.76C1903 1220.13 1901.93 1226.43 1900.07 1232.52C1896.42 1243.76 1889.01 1253.39 1879.09 1259.8C1869.17 1266.21 1857.34 1269.01 1845.6 1267.72C1820.46 1264.76 1801.34 1244.98 1799.66 1220.04C1799.38 1215.13 1799.38 1210.21 1799.66 1205.3C1802.41 1141.82 1805.21 1078.34 1808.04 1014.86C1811.36 941.566 1814.89 868.289 1818.19 795.003C1819.47 766.397 1820.4 737.851 1821.49 709.278L1822.32 709.252Z" fill="white"/>
<path d="M2186.36 841.563C2184.53 915.508 2182.7 989.452 2180.88 1063.4C2179.73 1109.32 2178.62 1155.25 2177.55 1201.17C2177.07 1222.75 2168.94 1240.06 2149.36 1250.38C2115.41 1268.27 2075.11 1244.65 2073.78 1205.89C2073.16 1188.01 2073.78 1170.06 2074.28 1152.15C2075.8 1094.07 2078.03 1036.05 2079.02 977.992C2081.09 855.763 2082.48 733.577 2084.29 611.374C2084.9 569.186 2085.7 526.998 2086.69 484.81C2086.76 479.036 2087.54 473.293 2089 467.707C2095.76 443.053 2118.37 428.048 2144.43 430.483C2168.5 432.737 2188.16 452.797 2189.96 477.494C2190.63 486.692 2190.44 495.976 2190.31 505.234C2188.76 617.338 2187.15 729.448 2185.49 841.563H2186.36Z" fill="white"/>
<path d="M2197.42 205.703C2193.68 234.206 2180.79 259.449 2153.8 274.663C2133.41 286.175 2111.94 284.788 2092.74 270.294C2075.04 256.892 2067.93 231.596 2074.42 208.425C2078.54 193.731 2098.65 165.575 2111.39 157.279C2129.41 145.603 2148.45 142.725 2167.91 153.127C2187.96 163.824 2195.82 182.046 2197.42 205.703Z" fill="white"/>
</svg>
