<svg width="370" height="122" viewBox="0 0 370 122" fill="none" xmlns="http://www.w3.org/2000/svg">
<path d="M20.5869 10.3474C14.7873 10.3474 11.8874 12.2629 11.8874 16.0939C11.8874 17.7965 12.6057 19.1001 14.0423 20.0047C14.7872 20.4303 15.9844 20.989 17.6339 21.6807C19.2833 22.3192 21.4649 23.0641 24.1785 23.9155C26.8389 24.7668 29.0736 25.6447 30.8827 26.5493C32.6918 27.4538 34.155 28.518 35.2724 29.7417C36.3898 30.9123 37.1879 32.2957 37.6667 33.892C38.1988 35.4882 38.4649 37.4037 38.4649 39.6385C38.4649 42.5117 38.0126 45.0391 37.1081 47.2206C36.2036 49.349 34.9266 51.1314 33.2771 52.5681C31.6276 54.0047 29.6589 55.0954 27.371 55.8404C25.083 56.5853 22.529 56.9577 19.709 56.9577C15.5588 56.9577 10.4774 56.3192 4.46487 55.0422L1.59161 54.4835L2.70901 45.9436C9.83891 46.9014 15.2927 47.3803 19.0705 47.3803C24.7106 47.3803 27.5306 45.0391 27.5306 40.3568C27.5306 38.6541 26.8921 37.3239 25.6151 36.3662C24.2317 35.4084 21.6245 34.3709 17.7935 33.2535C14.7074 32.3489 12.0736 31.4178 9.89209 30.4601C7.76376 29.4491 6.03452 28.3051 4.70432 27.0281C3.37411 25.6979 2.41634 24.2081 1.83105 22.5586C1.24576 20.9092 0.953125 19.0203 0.953125 16.892C0.953125 11.4115 2.57599 7.36771 5.82169 4.76051C9.12059 2.1001 13.6699 0.769897 19.4696 0.769897C21.4383 0.769897 23.673 0.902918 26.1738 1.16896C28.6746 1.435 31.4414 1.83406 34.4743 2.36614L37.3475 2.92483L36.4696 11.6244C32.6918 11.1987 29.4727 10.8795 26.8123 10.6666C24.2051 10.4538 22.13 10.3474 20.5869 10.3474Z" fill="white"/>
<path d="M58.3338 56H47.3197V1.72765H58.3338V56Z" fill="white"/>
<path d="M79.8139 11.4647H65.288V1.72765H105.194V11.4647H90.828V56H79.8139V11.4647Z" fill="white"/>
<path d="M147.285 56H112.167V1.72765H147.285V11.3051H123.181V23.9953H142.496V33.4131H123.181V46.4225H147.285V56Z" fill="white"/>
<path d="M184.911 56H173.897V1.72765H184.911V56Z" fill="white"/>
<path d="M207.748 56H196.734V1.72765H215.33L228.419 46.4225H229.217V1.72765H240.231V56H222.114L208.546 11.3051H207.748V56Z" fill="white"/>
<path d="M20.9062 104.927H11.9672V120.73H0.953125V66.4577H20.9062C33.7826 66.4577 40.2207 72.7363 40.2207 85.2934C40.2207 91.6784 38.5979 96.547 35.3522 99.8991C32.1065 103.251 27.2912 104.927 20.9062 104.927ZM11.9672 75.8756V95.5094H20.8264C26.3068 95.5094 29.047 92.1041 29.047 85.2934C29.047 81.9413 28.3819 79.547 27.0517 78.1103C25.7747 76.6205 23.6996 75.8756 20.8264 75.8756H11.9672Z" fill="white"/>
<path d="M69.5811 102.533H58.966V120.73H47.952V66.4577H69.0224C81.7924 66.4577 88.1773 72.4171 88.1773 84.3357C88.1773 91.4124 85.5169 96.6268 80.1961 99.9789L87.9379 120.73H75.8863L69.5811 102.533ZM58.966 93.115H69.182C71.7892 93.115 73.7313 92.3169 75.0083 90.7207C76.2853 89.1244 76.9238 87.0227 76.9238 84.4155C76.9238 81.8083 76.2321 79.7332 74.8487 78.1901C73.5185 76.6471 71.5764 75.8756 69.0224 75.8756H58.966V93.115Z" fill="white"/>
<path d="M117.558 121.688C113.407 121.688 109.896 121.129 107.022 120.012C104.202 118.894 101.888 117.218 100.079 114.984C98.3228 112.696 97.0458 109.796 96.2477 106.284C95.4496 102.772 95.0505 98.6221 95.0505 93.8334C95.0505 89.0446 95.4496 84.8944 96.2477 81.3826C97.0458 77.8177 98.3228 74.8646 100.079 72.5235C101.888 70.1291 104.202 68.3732 107.022 67.2559C109.896 66.0853 113.407 65.5 117.558 65.5C121.708 65.5 125.193 66.0853 128.013 67.2559C130.886 68.3732 133.201 70.1291 134.957 72.5235C136.766 74.8646 138.069 77.8177 138.867 81.3826C139.666 84.8944 140.065 89.0446 140.065 93.8334C140.065 97.9304 139.745 101.708 139.107 105.167C138.522 108.572 137.378 111.498 135.675 113.946C134.026 116.394 131.738 118.309 128.811 119.693C125.938 121.023 122.187 121.688 117.558 121.688ZM108.778 107.88C110.321 110.7 113.248 112.11 117.558 112.11C119.739 112.11 121.522 111.791 122.905 111.153C124.342 110.461 125.486 109.397 126.337 107.96C127.241 106.47 127.853 104.581 128.173 102.293C128.545 99.9523 128.731 97.1323 128.731 93.8334C128.731 90.5344 128.545 87.7144 128.173 85.3733C127.8 83.0321 127.188 81.09 126.337 79.547C125.486 78.0039 124.342 76.8865 122.905 76.1948C121.468 75.4499 119.686 75.0775 117.558 75.0775C115.429 75.0775 113.647 75.4499 112.21 76.1948C110.774 76.8865 109.63 78.0039 108.778 79.547C107.927 81.09 107.315 83.0321 106.943 85.3733C106.57 87.7144 106.384 90.5344 106.384 93.8334C106.384 100.378 107.182 105.06 108.778 107.88Z" fill="white"/>
<path d="M177.045 101.256H172.097V91.6784H187.9V119.852C184.069 120.437 180.61 120.89 177.524 121.209C174.491 121.528 171.778 121.688 169.383 121.688C165.18 121.688 161.641 121.156 158.768 120.092C155.948 118.974 153.66 117.272 151.904 114.984C150.202 112.642 148.978 109.689 148.233 106.124C147.541 102.559 147.195 98.3028 147.195 93.3545C147.195 88.4061 147.568 84.1761 148.313 80.6643C149.111 77.1526 150.361 74.2794 152.064 72.0446C153.82 69.8099 156.081 68.1604 158.848 67.0962C161.615 66.0321 164.993 65.5 168.984 65.5C173.932 65.5 179.28 66.0587 185.026 67.1761L187.9 67.7347L187.58 76.2747C184.388 75.9022 181.488 75.6362 178.881 75.4765C176.274 75.3169 173.959 75.2371 171.937 75.2371C169.915 75.2371 168.213 75.3435 166.829 75.5563C165.446 75.7692 164.275 76.1416 163.317 76.6737C162.413 77.2058 161.668 77.8975 161.083 78.7488C160.551 79.6002 160.098 80.6643 159.726 81.9413C158.928 84.5485 158.529 88.9648 158.529 95.1902C158.529 98.3294 158.688 100.99 159.008 103.171C159.38 105.3 159.992 107.029 160.843 108.359C161.748 109.689 162.972 110.647 164.515 111.232C166.058 111.818 168.026 112.11 170.421 112.11L177.045 111.791V101.256Z" fill="white"/>
<path d="M219.931 102.533H209.315V120.73H198.301V66.4577H219.372C232.142 66.4577 238.527 72.4171 238.527 84.3357C238.527 91.4124 235.866 96.6268 230.546 99.9789L238.287 120.73H226.236L219.931 102.533ZM209.315 93.115H219.531C222.139 93.115 224.081 92.3169 225.358 90.7207C226.635 89.1244 227.273 87.0227 227.273 84.4155C227.273 81.8083 226.582 79.7332 225.198 78.1901C223.868 76.6471 221.926 75.8756 219.372 75.8756H209.315V93.115Z" fill="white"/>
<path d="M282.912 120.73H247.794V66.4577H282.912V76.0352H258.808V88.7254H278.123V98.1432H258.808V111.153H282.912V120.73Z" fill="white"/>
<path d="M308.668 75.0775C302.868 75.0775 299.968 76.993 299.968 80.824C299.968 82.5266 300.687 83.8302 302.123 84.7348C302.868 85.1604 304.066 85.7191 305.715 86.4108C307.364 87.0493 309.546 87.7942 312.26 88.6456C314.92 89.4969 317.155 90.3748 318.964 91.2794C320.773 92.1839 322.236 93.2481 323.353 94.4718C324.471 95.6424 325.269 97.0258 325.748 98.6221C326.28 100.218 326.546 102.134 326.546 104.369C326.546 107.242 326.094 109.769 325.189 111.951C324.285 114.079 323.008 115.862 321.358 117.298C319.709 118.735 317.74 119.826 315.452 120.57C313.164 121.315 310.61 121.688 307.79 121.688C303.64 121.688 298.558 121.049 292.546 119.772L289.673 119.214L290.79 110.674C297.92 111.631 303.374 112.11 307.152 112.11C312.792 112.11 315.612 109.769 315.612 105.087C315.612 103.384 314.973 102.054 313.696 101.096C312.313 100.139 309.706 99.101 305.875 97.9836C302.789 97.0791 300.155 96.1479 297.973 95.1902C295.845 94.1792 294.116 93.0352 292.785 91.7582C291.455 90.428 290.497 88.9382 289.912 87.2887C289.327 85.6393 289.034 83.7504 289.034 81.6221C289.034 76.1416 290.657 72.0978 293.903 69.4906C297.202 66.8302 301.751 65.5 307.551 65.5C309.519 65.5 311.754 65.633 314.255 65.8991C316.756 66.1651 319.523 66.5642 322.555 67.0962L325.429 67.6549L324.551 76.3545C320.773 75.9288 317.554 75.6096 314.893 75.3967C312.286 75.1839 310.211 75.0775 308.668 75.0775Z" fill="white"/>
<path d="M352.082 75.0775C346.282 75.0775 343.382 76.993 343.382 80.824C343.382 82.5266 344.1 83.8302 345.537 84.7348C346.282 85.1604 347.479 85.7191 349.129 86.4108C350.778 87.0493 352.959 87.7942 355.673 88.6456C358.333 89.4969 360.568 90.3748 362.377 91.2794C364.186 92.1839 365.65 93.2481 366.767 94.4718C367.884 95.6424 368.682 97.0258 369.161 98.6221C369.693 100.218 369.96 102.134 369.96 104.369C369.96 107.242 369.507 109.769 368.603 111.951C367.698 114.079 366.421 115.862 364.772 117.298C363.122 118.735 361.154 119.826 358.866 120.57C356.578 121.315 354.024 121.688 351.204 121.688C347.053 121.688 341.972 121.049 335.959 119.772L333.086 119.214L334.204 110.674C341.333 111.631 346.787 112.11 350.565 112.11C356.205 112.11 359.025 109.769 359.025 105.087C359.025 103.384 358.387 102.054 357.11 101.096C355.726 100.139 353.119 99.101 349.288 97.9836C346.202 97.0791 343.568 96.1479 341.387 95.1902C339.258 94.1792 337.529 93.0352 336.199 91.7582C334.869 90.428 333.911 88.9382 333.326 87.2887C332.74 85.6393 332.448 83.7504 332.448 81.6221C332.448 76.1416 334.071 72.0978 337.316 69.4906C340.615 66.8302 345.164 65.5 350.964 65.5C352.933 65.5 355.168 65.633 357.668 65.8991C360.169 66.1651 362.936 66.5642 365.969 67.0962L368.842 67.6549L367.964 76.3545C364.186 75.9288 360.967 75.6096 358.307 75.3967C355.7 75.1839 353.625 75.0775 352.082 75.0775Z" fill="white"/>
</svg>
