<svg width="639" height="57" viewBox="0 0 639 57" fill="none" xmlns="http://www.w3.org/2000/svg">
<path d="M20.5869 10.3474C14.7872 10.3474 11.8874 12.2629 11.8874 16.0939C11.8874 17.7965 12.6057 19.1001 14.0423 20.0047C14.7872 20.4303 15.9844 20.989 17.6339 21.6807C19.2833 22.3192 21.4649 23.0641 24.1785 23.9155C26.8389 24.7668 29.0736 25.6447 30.8827 26.5493C32.6918 27.4538 34.155 28.518 35.2724 29.7417C36.3898 30.9123 37.1879 32.2957 37.6668 33.892C38.1988 35.4882 38.4649 37.4037 38.4649 39.6385C38.4649 42.5117 38.0126 45.0391 37.1081 47.2206C36.2035 49.349 34.9265 51.1314 33.2771 52.5681C31.6276 54.0047 29.6589 55.0954 27.371 55.8404C25.083 56.5853 22.529 56.9577 19.709 56.9577C15.5588 56.9577 10.4774 56.3192 4.46486 55.0422L1.59162 54.4835L2.70899 45.9436C9.83889 46.9014 15.2927 47.3803 19.0705 47.3803C24.7106 47.3803 27.5306 45.0391 27.5306 40.3568C27.5306 38.6541 26.8921 37.3239 25.6151 36.3662C24.2317 35.4084 21.6245 34.3709 17.7935 33.2535C14.7074 32.3489 12.0736 31.4178 9.8921 30.4601C7.76377 29.4491 6.03451 28.3051 4.7043 27.0281C3.3741 25.6979 2.41635 24.2081 1.83106 22.5586C1.24577 20.9092 0.953125 19.0203 0.953125 16.892C0.953125 11.4115 2.57597 7.36771 5.82167 4.76051C9.12058 2.1001 13.6699 0.769897 19.4696 0.769897C21.4383 0.769897 23.673 0.902918 26.1738 1.16896C28.6746 1.435 31.4414 1.83406 34.4743 2.36614L37.3475 2.92483L36.4696 11.6244C32.6918 11.1987 29.4727 10.8795 26.8123 10.6666C24.2051 10.4538 22.13 10.3474 20.5869 10.3474Z" fill="white"/>
<path d="M58.3338 56H47.3197V1.72765H58.3338V56Z" fill="white"/>
<path d="M79.8139 11.4647H65.288V1.72765H105.194V11.4647H90.828V56H79.8139V11.4647Z" fill="white"/>
<path d="M147.285 56H112.167V1.72765H147.285V11.3051H123.181V23.9953H142.496V33.4131H123.181V46.4225H147.285V56Z" fill="white"/>
<path d="M184.911 56H173.897V1.72765H184.911V56Z" fill="white"/>
<path d="M207.748 56H196.734V1.72765H215.33L228.419 46.4225H229.217V1.72765H240.232V56H222.114L208.546 11.3051H207.748V56Z" fill="white"/>
<path d="M289.562 40.1972H280.623V56H269.609V1.72765H289.562C302.439 1.72765 308.877 8.00621 308.877 20.5633C308.877 26.9483 307.254 31.8169 304.008 35.169C300.763 38.5211 295.947 40.1972 289.562 40.1972ZM280.623 11.1455V30.7793H289.483C294.963 30.7793 297.703 27.374 297.703 20.5633C297.703 17.2112 297.038 14.8169 295.708 13.3802C294.431 11.8904 292.356 11.1455 289.483 11.1455H280.623Z" fill="white"/>
<path d="M338.237 37.8028H327.622V56H316.608V1.72765H337.679C350.449 1.72765 356.833 7.68696 356.833 19.6056C356.833 26.6823 354.173 31.8967 348.852 35.2488L356.594 56H344.542L338.237 37.8028ZM327.622 28.3849H337.838C340.445 28.3849 342.387 27.5868 343.664 25.9906C344.941 24.3943 345.58 22.2926 345.58 19.6854C345.58 17.0782 344.888 15.0031 343.505 13.46C342.175 11.917 340.233 11.1455 337.679 11.1455H327.622V28.3849Z" fill="white"/>
<path d="M386.214 56.9577C382.064 56.9577 378.552 56.399 375.679 55.2817C372.858 54.1643 370.544 52.4882 368.735 50.2535C366.979 47.9655 365.702 45.0657 364.904 41.554C364.106 38.0422 363.707 33.892 363.707 29.1033C363.707 24.3145 364.106 20.1643 364.904 16.6525C365.702 13.0876 366.979 10.1345 368.735 7.79338C370.544 5.39901 372.858 3.64314 375.679 2.52577C378.552 1.35519 382.064 0.769897 386.214 0.769897C390.364 0.769897 393.849 1.35519 396.669 2.52577C399.542 3.64314 401.857 5.39901 403.613 7.79338C405.422 10.1345 406.725 13.0876 407.524 16.6525C408.322 20.1643 408.721 24.3145 408.721 29.1033C408.721 33.2003 408.402 36.9781 407.763 40.4366C407.178 43.8419 406.034 46.7684 404.331 49.2159C402.682 51.6635 400.394 53.579 397.467 54.9624C394.594 56.2926 390.843 56.9577 386.214 56.9577ZM377.434 43.1502C378.977 45.9702 381.904 47.3803 386.214 47.3803C388.395 47.3803 390.178 47.061 391.561 46.4225C392.998 45.7308 394.142 44.6666 394.993 43.23C395.898 41.7402 396.51 39.8513 396.829 37.5634C397.201 35.2222 397.387 32.4022 397.387 29.1033C397.387 25.8043 397.201 22.9843 396.829 20.6432C396.456 18.302 395.844 16.3599 394.993 14.8169C394.142 13.2738 392.998 12.1564 391.561 11.4647C390.125 10.7198 388.342 10.3474 386.214 10.3474C384.085 10.3474 382.303 10.7198 380.866 11.4647C379.43 12.1564 378.286 13.2738 377.434 14.8169C376.583 16.3599 375.971 18.302 375.599 20.6432C375.226 22.9843 375.04 25.8043 375.04 29.1033C375.04 35.6479 375.838 40.3302 377.434 43.1502Z" fill="white"/>
<path d="M445.701 36.5258H440.753V26.9483H456.556V55.122C452.725 55.7073 449.266 56.1596 446.18 56.4789C443.147 56.7981 440.434 56.9577 438.039 56.9577C433.836 56.9577 430.298 56.4256 427.424 55.3615C424.604 54.2441 422.316 52.5414 420.56 50.2535C418.858 47.9123 417.634 44.9593 416.889 41.3943C416.197 37.8294 415.852 33.5727 415.852 28.6244C415.852 23.676 416.224 19.446 416.969 15.9342C417.767 12.4225 419.017 9.54925 420.72 7.3145C422.476 5.07976 424.737 3.43031 427.504 2.36614C430.271 1.30198 433.65 0.769897 437.64 0.769897C442.589 0.769897 447.936 1.32858 453.683 2.44596L456.556 3.00464L456.237 11.5446C453.044 11.1721 450.144 10.9061 447.537 10.7464C444.93 10.5868 442.615 10.507 440.593 10.507C438.571 10.507 436.869 10.6134 435.485 10.8262C434.102 11.0391 432.931 11.4115 431.974 11.9436C431.069 12.4757 430.324 13.1674 429.739 14.0187C429.207 14.8701 428.755 15.9342 428.382 17.2112C427.584 19.8184 427.185 24.2347 427.185 30.4601C427.185 33.5993 427.344 36.2597 427.664 38.4413C428.036 40.5696 428.648 42.2989 429.499 43.6291C430.404 44.9593 431.628 45.917 433.171 46.5023C434.714 47.0876 436.683 47.3803 439.077 47.3803L445.701 47.061V36.5258Z" fill="white"/>
<path d="M488.587 37.8028H477.972V56H466.958V1.72765H488.028C500.798 1.72765 507.183 7.68696 507.183 19.6056C507.183 26.6823 504.523 31.8967 499.202 35.2488L506.944 56H494.892L488.587 37.8028ZM477.972 28.3849H488.188C490.795 28.3849 492.737 27.5868 494.014 25.9906C495.291 24.3943 495.929 22.2926 495.929 19.6854C495.929 17.0782 495.238 15.0031 493.854 13.46C492.524 11.917 490.582 11.1455 488.028 11.1455H477.972V28.3849Z" fill="white"/>
<path d="M551.568 56H516.451V1.72765H551.568V11.3051H527.465V23.9953H546.779V33.4131H527.465V46.4225H551.568V56Z" fill="white"/>
<path d="M577.324 10.3474C571.524 10.3474 568.625 12.2629 568.625 16.0939C568.625 17.7965 569.343 19.1001 570.78 20.0047C571.525 20.4303 572.722 20.989 574.371 21.6807C576.021 22.3192 578.202 23.0641 580.916 23.9155C583.576 24.7668 585.811 25.6447 587.62 26.5493C589.429 27.4538 590.892 28.518 592.01 29.7417C593.127 30.9123 593.925 32.2957 594.404 33.892C594.936 35.4882 595.202 37.4037 595.202 39.6385C595.202 42.5117 594.75 45.0391 593.845 47.2206C592.941 49.349 591.664 51.1314 590.014 52.5681C588.365 54.0047 586.396 55.0954 584.108 55.8404C581.82 56.5853 579.266 56.9577 576.446 56.9577C572.296 56.9577 567.215 56.3192 561.202 55.0422L558.329 54.4835L559.446 45.9436C566.576 46.9014 572.03 47.3803 575.808 47.3803C581.448 47.3803 584.268 45.0391 584.268 40.3568C584.268 38.6541 583.629 37.3239 582.352 36.3662C580.969 35.4084 578.362 34.3709 574.531 33.2535C571.445 32.3489 568.811 31.4178 566.629 30.4601C564.501 29.4491 562.772 28.3051 561.442 27.0281C560.111 25.6979 559.154 24.2081 558.568 22.5586C557.983 20.9092 557.69 19.0203 557.69 16.892C557.69 11.4115 559.313 7.36771 562.559 4.76051C565.858 2.1001 570.407 0.769897 576.207 0.769897C578.175 0.769897 580.41 0.902918 582.911 1.16896C585.412 1.435 588.179 1.83406 591.212 2.36614L594.085 2.92483L593.207 11.6244C589.429 11.1987 586.21 10.8795 583.55 10.6666C580.942 10.4538 578.867 10.3474 577.324 10.3474Z" fill="white"/>
<path d="M620.738 10.3474C614.938 10.3474 612.038 12.2629 612.038 16.0939C612.038 17.7965 612.756 19.1001 614.193 20.0047C614.938 20.4303 616.135 20.989 617.785 21.6807C619.434 22.3192 621.616 23.0641 624.329 23.9155C626.99 24.7668 629.224 25.6447 631.034 26.5493C632.843 27.4538 634.306 28.518 635.423 29.7417C636.541 30.9123 637.339 32.2957 637.818 33.892C638.35 35.4882 638.616 37.4037 638.616 39.6385C638.616 42.5117 638.163 45.0391 637.259 47.2206C636.354 49.349 635.077 51.1314 633.428 52.5681C631.778 54.0047 629.81 55.0954 627.522 55.8404C625.234 56.5853 622.68 56.9577 619.86 56.9577C615.71 56.9577 610.628 56.3192 604.616 55.0422L601.742 54.4835L602.86 45.9436C609.99 46.9014 615.443 47.3803 619.221 47.3803C624.861 47.3803 627.681 45.0391 627.681 40.3568C627.681 38.6541 627.043 37.3239 625.766 36.3662C624.382 35.4084 621.775 34.3709 617.944 33.2535C614.858 32.3489 612.224 31.4178 610.043 30.4601C607.915 29.4491 606.185 28.3051 604.855 27.0281C603.525 25.6979 602.567 24.2081 601.982 22.5586C601.397 20.9092 601.104 19.0203 601.104 16.892C601.104 11.4115 602.727 7.36771 605.972 4.76051C609.271 2.1001 613.821 0.769897 619.62 0.769897C621.589 0.769897 623.824 0.902918 626.325 1.16896C628.825 1.435 631.592 1.83406 634.625 2.36614L637.498 2.92483L636.62 11.6244C632.843 11.1987 629.623 10.8795 626.963 10.6666C624.356 10.4538 622.281 10.3474 620.738 10.3474Z" fill="white"/>
</svg>
