<svg width="1731" height="1693" viewBox="0 0 1731 1693" fill="none" xmlns="http://www.w3.org/2000/svg">
<path d="M939.607 644.671C918.707 687.671 886.207 702.771 843.207 694.271C806.407 686.871 778.707 638.471 777.907 610.871C778.607 613.371 779.407 615.771 780.107 618.271C780.607 615.371 781.207 612.571 781.507 609.671C782.307 602.471 784.507 597.871 792.707 602.771C791.107 617.071 798.707 627.871 808.607 635.871C823.207 647.571 841.007 655.171 851.507 671.771C851.807 672.271 853.407 672.671 853.607 672.371C854.407 671.571 854.907 670.271 855.607 669.271C857.007 667.471 859.107 664.071 859.707 664.271C869.407 668.071 878.907 672.371 888.607 676.471C891.207 677.571 895.707 679.471 896.607 678.471C899.507 675.371 901.107 671.071 903.207 667.271C901.407 666.871 899.607 666.271 897.807 666.071C892.907 665.671 885.007 667.371 883.607 664.971C875.407 651.471 893.707 651.571 896.207 643.071C896.507 641.971 900.007 640.471 900.507 640.871C914.507 652.371 921.107 637.371 930.507 632.671C937.307 634.071 928.107 647.171 939.607 644.671Z" fill="#FBB8E5"/>
<path d="M792.707 602.771C784.507 597.771 782.307 602.471 781.507 609.671C781.207 612.571 780.607 615.371 780.107 618.271C779.407 615.771 778.607 613.371 777.907 610.871C777.907 610.171 777.907 609.371 777.907 608.671C778.207 605.071 778.407 601.471 778.707 597.871C778.807 596.771 778.807 595.771 778.907 594.671C779.207 594.371 779.407 594.171 779.707 593.871C779.807 593.171 779.807 592.371 779.907 591.671C780.207 591.071 780.507 590.471 780.707 589.871C781.107 588.171 781.507 586.371 781.907 584.671C782.207 584.371 782.407 584.171 782.707 583.871C786.107 576.871 789.407 569.771 792.807 562.771C801.707 553.171 810.307 544.271 823.107 538.771C853.107 525.771 895.007 528.371 915.807 546.871C916.507 547.571 917.107 548.171 917.807 548.871C918.507 549.171 919.107 549.571 919.807 549.871C920.107 550.171 920.407 550.471 920.807 550.871C921.507 550.871 922.207 550.871 922.907 550.971C923.207 551.271 923.507 551.571 923.807 551.871C925.107 552.871 926.507 553.871 927.807 554.971C931.807 561.171 936.107 567.071 939.607 573.571C945.307 584.171 953.407 595.771 945.807 607.371C943.207 611.271 946.307 599.771 940.907 598.971C939.507 596.371 938.207 593.671 936.807 591.071H936.707C933.907 570.971 921.307 556.071 904.407 549.171C873.307 536.371 841.707 541.171 811.807 556.171C810.807 556.871 809.807 557.471 808.807 558.171C807.807 561.871 806.807 565.471 805.807 569.171C805.107 569.171 804.407 569.171 803.707 569.071C801.707 569.771 798.907 569.771 797.907 571.171C791.007 580.571 791.607 591.671 792.707 602.771Z" fill="#FAC8B8"/>
<path d="M915.707 546.771C894.907 528.371 853.007 525.671 823.007 538.671C810.207 544.271 801.507 553.171 792.707 562.671C800.207 542.271 818.407 535.171 836.307 528.071C860.007 518.571 883.307 519.371 905.607 532.571C912.307 537.271 918.907 541.971 925.607 546.771C926.907 547.771 928.207 548.771 929.507 549.771C931.207 552.871 933.007 555.971 934.707 559.071C932.307 557.671 930.007 556.171 927.607 554.771C926.307 553.771 924.907 552.771 923.607 551.671C923.307 551.371 923.007 551.071 922.707 550.771C922.007 550.771 921.307 550.771 920.607 550.671C920.307 550.371 920.007 550.071 919.607 549.671C918.907 549.371 918.307 548.971 917.607 548.671C917.007 548.071 916.407 547.471 915.707 546.771Z" fill="#ECEDCE"/>
<path d="M927.707 554.771C930.107 556.171 932.407 557.671 934.807 559.071C933.107 555.971 931.307 552.871 929.607 549.771C953.007 572.171 962.907 621.271 939.607 644.571C928.107 647.071 937.307 633.971 930.707 632.671C937.007 624.271 946.207 616.471 936.707 604.671C937.107 603.971 937.407 603.271 937.807 602.571C938.807 601.271 939.807 599.971 940.907 598.671C946.307 599.371 943.207 610.871 945.807 607.071C953.407 595.571 945.307 583.971 939.607 573.271C936.007 566.971 931.707 560.971 927.707 554.771Z" fill="#F9C7C8"/>
<path d="M778.707 597.871C778.407 601.471 778.207 605.071 777.907 608.671C778.107 605.071 778.407 601.471 778.707 597.871Z" fill="#FBB8E5"/>
<path d="M782.607 583.871C782.307 584.171 782.107 584.371 781.807 584.671C782.107 584.471 782.407 584.171 782.607 583.871Z" fill="#FBB8E5"/>
<path d="M779.707 593.871C779.407 594.171 779.207 594.371 778.907 594.671C779.107 594.471 779.407 594.171 779.707 593.871Z" fill="#FBB8E5"/>
<path d="M936.607 604.872C946.107 616.672 937.007 624.472 930.607 632.872C921.207 637.572 914.607 652.572 900.607 641.072C900.107 640.672 896.607 642.172 896.307 643.272C893.707 651.772 875.507 651.672 883.707 665.172C885.107 667.572 893.007 665.872 897.907 666.272C899.707 666.372 901.507 667.072 903.307 667.472C901.207 671.272 899.607 675.572 896.707 678.672C895.807 679.672 891.307 677.772 888.707 676.672C879.107 672.672 869.607 668.272 859.807 664.472C859.207 664.172 857.007 667.672 855.707 669.472C855.007 670.472 854.507 671.672 853.707 672.572C853.407 672.872 851.907 672.472 851.607 671.972C841.107 655.372 823.207 647.772 808.707 636.072C798.707 628.072 791.207 617.372 792.807 602.972C791.707 591.872 791.107 580.772 798.007 571.072C799.007 569.672 801.807 569.672 803.807 568.972C791.007 576.172 806.007 582.872 804.307 590.572C802.707 597.972 832.007 618.572 838.307 618.372C852.307 617.772 867.407 616.372 880.207 620.772C903.807 628.772 920.007 617.872 936.607 604.872Z" fill="#FD99CD"/>
<path d="M805.707 568.871C806.707 565.171 807.707 561.571 808.707 557.871C809.207 558.771 809.707 559.571 810.207 560.471C810.707 558.971 811.207 557.371 811.707 555.871C841.607 540.871 873.207 536.071 904.307 548.871C921.207 555.871 933.707 570.771 936.607 590.771C936.507 606.671 927.007 601.371 918.707 598.771C918.207 598.371 917.807 597.971 917.307 597.571C917.107 598.571 916.907 599.671 916.707 600.671C907.307 597.871 897.907 595.071 888.607 592.071C874.607 587.671 860.607 579.671 846.607 579.671C831.107 579.971 817.707 578.971 805.707 568.871Z" fill="#FA93A6"/>
<path d="M805.707 568.871C817.707 578.971 831.107 579.971 846.607 579.871C860.607 579.771 874.607 587.871 888.607 592.271C898.007 595.171 907.407 597.971 916.707 600.871C917.407 600.171 918.007 599.571 918.707 598.871C927.007 601.571 936.607 606.871 936.607 590.871H936.707C937.007 594.871 937.407 598.771 937.707 602.771C937.307 603.471 937.007 604.171 936.607 604.871C920.007 617.971 903.707 628.871 880.007 620.571C867.307 616.171 852.107 617.571 838.107 618.171C831.807 618.471 802.507 597.771 804.107 590.371C805.807 582.771 790.707 576.071 803.607 568.771C804.307 568.771 805.007 568.871 805.707 568.871Z" fill="#FD8EBA"/>
<path d="M937.707 602.671C937.407 598.671 937.007 594.771 936.707 590.771C938.107 593.371 939.407 596.071 940.807 598.671C939.807 600.071 938.707 601.371 937.707 602.671Z" fill="#FD99CD"/>
<path d="M811.707 555.871C811.207 557.371 810.707 558.971 810.207 560.471C809.707 559.571 809.207 558.771 808.707 557.871C809.707 557.171 810.707 556.471 811.707 555.871Z" fill="#FD8EBA"/>
<path d="M919.707 549.771C920.007 550.071 920.307 550.371 920.707 550.771C920.307 550.471 920.007 550.071 919.707 549.771Z" fill="#F9C7C8"/>
<path d="M922.707 550.771C923.007 551.071 923.307 551.371 923.607 551.671C923.307 551.471 923.007 551.171 922.707 550.771Z" fill="#F9C7C8"/>
<path d="M918.707 598.771C918.007 599.471 917.407 600.071 916.707 600.771C916.907 599.771 917.107 598.671 917.307 597.671C917.807 597.971 918.307 598.371 918.707 598.771Z" fill="#FD99CD"/>
</svg>
