<svg width="1731" height="1693" viewBox="0 0 1731 1693" fill="none" xmlns="http://www.w3.org/2000/svg">
<path d="M360.683 240.771C358.283 240.671 355.983 240.571 353.583 240.571C354.683 239.871 355.683 239.171 356.783 238.471C354.383 237.871 351.883 237.171 349.483 236.571C350.283 233.371 351.083 230.171 351.983 226.971C352.283 226.671 352.683 226.371 352.983 226.071C353.683 225.771 354.383 225.471 355.083 225.171C355.683 224.971 356.283 224.871 356.783 224.671C357.083 224.371 357.483 224.171 357.783 223.871H357.883C368.983 214.271 376.683 199.571 393.983 199.071C401.383 199.371 408.783 199.671 416.183 199.971C418.583 202.871 420.983 205.771 423.383 208.571C423.483 208.671 424.183 208.371 424.583 208.271C422.683 205.571 420.883 202.771 418.983 200.071C427.783 201.671 433.283 207.771 438.583 214.171C440.983 217.371 443.783 220.471 445.783 223.971C447.283 226.671 453.283 231.371 447.583 232.471C437.883 234.371 427.483 233.171 417.483 232.571C398.183 231.271 378.883 229.871 361.083 239.971C360.983 240.271 360.783 240.571 360.683 240.771Z" fill="#110D19"/>
<path d="M1296.48 361.071C1290.78 360.271 1285.08 359.371 1279.38 358.571C1282.38 353.371 1285.48 348.171 1288.48 342.971C1291.58 340.571 1294.68 338.271 1297.78 335.871C1297.98 336.471 1298.08 337.071 1298.28 337.671C1296.08 339.971 1293.58 341.971 1291.68 344.471C1289.18 347.671 1287.18 351.071 1284.98 354.471C1285.98 354.971 1287.08 355.971 1288.08 355.971C1300.98 354.971 1313.78 353.471 1326.68 352.771C1343.58 351.771 1360.38 351.671 1375.98 359.671L1376.08 359.571C1373.58 359.771 1371.18 359.971 1368.68 360.171C1349.18 362.471 1330.08 372.171 1310.08 362.171C1306.28 360.271 1301.08 361.371 1296.48 361.071Z" fill="#F40C8F"/>
<path d="M1297.78 335.871C1294.68 338.271 1291.58 340.571 1288.48 342.971C1303.48 321.271 1320.58 303.371 1350.58 309.071C1368.58 312.571 1385.28 337.971 1380.48 355.771C1379.68 358.671 1375.98 362.471 1373.28 362.771C1347.58 365.671 1321.78 372.171 1296.48 360.971C1300.98 361.271 1306.18 360.271 1309.98 362.071C1330.08 372.071 1349.18 362.371 1368.58 360.071C1371.08 359.871 1373.48 359.671 1375.98 359.471L1375.88 359.571C1383.08 340.771 1374.98 327.371 1360.78 316.071C1345.18 303.071 1309.38 313.871 1300.98 334.071L1300.88 334.171C1299.88 334.771 1298.88 335.371 1297.78 335.871Z" fill="#C6BAC5"/>
<path d="M438.683 214.171C433.383 207.671 427.883 201.571 419.183 200.071C418.283 200.071 417.283 200.071 416.383 200.071C408.983 199.771 401.583 199.471 394.183 199.171C375.483 197.771 366.983 211.171 358.083 223.971H357.983C357.683 224.271 357.283 224.471 356.983 224.771C356.383 224.971 355.783 225.071 355.283 225.271C354.883 225.171 354.483 225.171 354.083 225.071C370.783 196.571 396.183 189.271 425.683 199.471C441.983 205.171 450.883 220.971 458.383 236.171C460.183 239.871 451.983 243.571 444.983 242.271C448.583 241.471 453.583 243.671 454.983 237.771C456.683 224.971 443.983 222.071 438.683 214.171Z" fill="#AD96A4"/>
<path d="M360.683 240.771C360.783 240.471 360.983 240.171 361.083 239.871C363.983 240.171 366.883 240.571 369.783 240.871C375.983 242.571 382.283 244.271 388.483 245.971C396.883 251.871 405.883 250.671 414.883 247.971C422.583 245.671 430.283 243.471 437.983 241.171C414.083 256.371 389.983 252.871 365.783 242.071C364.283 241.471 362.383 241.271 360.683 240.771Z" fill="#B8ABB9"/>
<path d="M438.083 241.271C430.383 243.571 422.683 245.77 414.983 248.07C414.983 243.77 414.983 240.07 421.283 239.87C432.483 239.57 443.683 238.471 454.883 237.771C453.583 243.671 448.583 241.471 444.883 242.271C442.583 241.971 440.383 241.571 438.083 241.271Z" fill="#432D52"/>
<path d="M349.483 236.671C351.883 237.271 354.383 237.971 356.783 238.571C355.683 239.271 354.683 239.971 353.583 240.671C352.283 239.271 350.883 237.971 349.483 236.671Z" fill="#AB164E"/>
<path d="M353.983 225.071C354.383 225.171 354.783 225.171 355.183 225.271C354.483 225.571 353.783 225.871 353.083 226.171C353.383 225.771 353.683 225.371 353.983 225.071Z" fill="#6C6570"/>
<path d="M454.783 237.771C443.583 238.571 432.383 239.671 421.183 239.871C414.883 239.971 414.883 243.671 414.883 248.071C405.783 250.771 396.883 252.071 388.483 246.071C387.983 239.271 383.183 239.971 378.583 240.471C375.683 240.671 372.783 240.771 369.883 240.971H369.783C366.883 240.671 363.983 240.271 361.083 239.971C378.883 229.871 398.083 231.271 417.483 232.571C427.583 233.271 437.883 234.371 447.583 232.471C453.283 231.371 447.283 226.571 445.783 223.971C443.783 220.471 440.983 217.371 438.583 214.171C443.983 222.071 456.683 224.971 454.783 237.771Z" fill="#F60288"/>
<path d="M357.883 223.971C366.783 211.171 375.383 197.771 393.983 199.171C376.683 199.671 369.083 214.371 357.883 223.971Z" fill="#6C6570"/>
<path d="M416.283 199.971C417.183 199.971 418.183 199.971 419.083 199.971C420.983 202.671 422.783 205.471 424.683 208.171C424.283 208.271 423.583 208.671 423.483 208.471C420.983 205.771 418.683 202.871 416.283 199.971Z" fill="#D60B48"/>
<path d="M356.883 224.771C357.183 224.471 357.583 224.271 357.883 223.971C357.483 224.271 357.183 224.471 356.883 224.771Z" fill="#6C6570"/>
<path d="M1360.88 316.071C1375.08 327.371 1383.18 340.871 1375.98 359.571C1360.28 351.571 1343.48 351.771 1326.68 352.671C1313.78 353.371 1300.98 354.871 1288.08 355.871C1287.08 355.971 1285.98 354.971 1284.98 354.371C1287.18 351.071 1289.28 347.571 1291.68 344.371C1293.58 341.871 1296.08 339.771 1298.28 337.571C1299.18 336.371 1300.08 335.171 1300.98 333.971L1301.08 333.871C1306.48 330.371 1313.28 327.871 1316.68 322.971C1320.28 317.971 1323.88 315.571 1329.38 313.671C1340.38 309.971 1350.58 313.171 1360.88 316.071Z" fill="#140F21"/>
<path d="M1376.08 359.571C1373.58 359.771 1371.18 359.971 1368.68 360.171C1371.08 359.971 1373.58 359.771 1376.08 359.571Z" fill="#140F21"/>
<path d="M1300.98 334.171C1300.08 335.371 1299.18 336.571 1298.28 337.771C1298.08 337.171 1297.98 336.571 1297.78 335.971C1298.88 335.371 1299.88 334.771 1300.98 334.171Z" fill="#7D4065"/>
<path d="M1360.88 316.071C1350.58 313.071 1340.48 309.971 1329.38 313.871C1323.88 315.771 1320.28 318.171 1316.68 323.171C1313.18 328.071 1306.38 330.571 1301.08 334.071C1309.48 313.871 1345.18 303.071 1360.88 316.071Z" fill="#7D4065"/>
<path d="M378.583 240.471C383.183 239.971 387.983 239.271 388.483 246.071C382.283 244.371 375.983 242.671 369.783 240.971H369.883C372.783 240.771 375.683 240.671 378.583 240.471Z" fill="#4A2854"/>
</svg>
