<svg viewBox="0 0 384 384" xmlns="http://www.w3.org/2000/svg">
    <path d="M184.89 0H206.6C212.26 0.73 217.93 1.38 223.6 2.19C255.3 6.72 285.21 16.38 312.33 33.71C336.15 48.93 354.79 68.8 365.1 95.48C378.43 129.95 385.1 165.58 382.72 202.69C381.01 229.01 374.64 254.05 362.6 277.56C344.89 312.12 318.27 338.11 284.85 357.28C245.75 379.71 203.76 387.91 159.15 380.78C121.31 374.78 88.15 358.42 58.88 333.78C27.7 307.55 9.51 274 2.86 234C1.69 226.9 0.94 219.73 0 212.59V187.88C0.280488 186.818 0.494239 185.739 0.64 184.65C2.57 156.27 9.74 129.23 21 103.17C33.66 73.92 52.49 49.91 79.81 33C100.4 20.23 122.92 12.54 146.46 7.57C159.23 4.85 172.08 2.5 184.89 0Z"
          fill="white"/>

    <path d="M184.89 0H206.6C212.26 0.73 217.93 1.38 223.6 2.19C255.3 6.72 285.21 16.38 312.33 33.71C336.15 48.93 354.79 68.8 365.1 95.48C378.43 129.95 385.1 165.58 382.72 202.69C381.01 229.01 374.64 254.05 362.6 277.56C344.89 312.12 318.27 338.11 284.85 357.28C245.75 379.71 203.76 387.91 159.15 380.78C121.31 374.78 88.15 358.42 58.88 333.78C27.7 307.55 9.51 274 2.86 234C1.69 226.9 0.94 219.73 0 212.59V187.88C0.280488 186.818 0.494239 185.739 0.64 184.65C2.57 156.27 9.74 129.23 21 103.17C33.66 73.92 52.49 49.91 79.81 33C100.4 20.23 122.92 12.54 146.46 7.57C159.23 4.85 172.08 2.5 184.89 0ZM363.22 145.23L364.01 145.09C362.94 140.25 361.79 135.43 360.82 130.58C359.984 126.154 357.809 122.091 354.59 118.94C346.59 110.94 338.75 102.68 330.86 94.52C329.776 93.4993 328.816 92.3548 328 91.11C326.59 88.69 327.46 86.47 329.35 84.74C331.24 83.01 332.84 84.49 334.14 85.84C336.75 88.52 339.35 91.22 341.77 94.07C346.53 99.66 351.16 105.35 355.85 111C353.19 99.9 349.78 89.13 342.55 80.14C296.35 22.73 236 1.54 164 10.91C145.73 13.28 128.68 20.3 111.52 26.71C98.44 31.6 86.12 38.05 75.76 47.34C24.45 93.34 -0.34 149.75 10.76 219.23C16.21 253.48 30.96 283.56 56.19 307.85C82.94 333.6 115.1 348.33 151.8 353.13C159.74 354.13 167.8 354.13 175.86 354.54L176.73 353.27C174.42 347.97 172.3 342.56 169.73 337.4C168.59 335.11 169.34 334.22 171.14 333.4C173.67 332.2 175.63 332.56 177.01 335.28C179.55 340.273 182.17 345.227 184.87 350.14C185.4 351.14 186.39 352.43 187.24 352.49C190.9 352.75 194.59 352.6 198.72 352.6C195.91 345.36 193.33 338.65 190.72 331.96C189.85 329.77 189.48 327.89 192.17 326.69C194.86 325.49 196.33 326.53 197.44 328.99C200.48 335.657 203.58 342.323 206.74 348.99C207.18 349.93 208.02 351.5 208.59 351.46C213.96 351.09 219.31 350.46 225.59 349.77C220.87 339.36 216.59 329.88 212.31 320.43C216.59 316.84 218.51 317.08 220.99 321.61C222.91 325.1 224.75 328.61 226.58 332.18C228.79 336.46 230.94 340.76 233.13 345.07L244.74 341.3C240.68 331.88 236.74 322.86 232.93 313.8C232.19 312.05 230.87 309.8 233.65 308.71C235.85 307.86 238 308.18 239.33 310.71C242.66 317.12 246.13 323.46 249.53 329.83C250.85 332.32 252.15 334.83 253.53 337.46L265.18 332.3C260.75 324.4 256.45 316.82 252.25 309.2C248.88 303.08 248.94 303.05 255.18 299.79C255.584 299.651 256.004 299.56 256.43 299.52L272 326.79C276.09 324.15 280.06 321.84 283.67 319.07C284.184 318.489 284.545 317.788 284.719 317.032C284.894 316.276 284.877 315.488 284.67 314.74C282.835 310.789 280.789 306.941 278.54 303.21C275.96 298.7 273.24 294.27 270.49 289.64L277.09 283.64L294.7 310.64C298.29 307.85 301.7 305.39 304.87 302.59C305.277 302.068 305.55 301.454 305.667 300.803C305.784 300.151 305.74 299.481 305.54 298.85C304.238 296.156 302.695 293.586 300.93 291.17C296.34 284.66 291.64 278.17 286.93 271.77C284.48 268.4 287.81 267.17 289.31 265.41C291.11 263.29 292.51 264.58 293.68 266.41C296.05 270.07 298.51 273.67 300.82 277.41C304.29 282.96 307.65 288.57 311.27 294.49C314.55 291 317.37 287.66 320.56 284.74C323.25 282.28 323.15 280.11 321.26 277.31C315.26 268.42 309.41 259.45 303.5 250.51C300.4 245.84 301.24 243.23 307.26 240.51L330.26 273.2C332.45 271.12 334.49 269.32 336.37 267.36C343.49 259.9 343.75 261.64 337.69 253.08C330.92 243.53 323.46 234.46 316.29 225.2C314.29 222.64 314.86 220.09 317.8 219.72C318.91 219.59 320.57 220.64 321.36 221.64C328.42 230.52 335.36 239.51 342.3 248.47C343.73 250.31 345.15 252.17 346.78 254.29L354.78 241.17C345.02 229.17 335.41 217.38 325.85 205.55C323.33 202.44 323.7 199.91 327.36 196.55L357.69 233.81C359.32 230.17 360.49 226.71 362.34 223.67C364.63 219.9 363.69 217.16 361.06 214.06C351.68 203.06 342.5 191.87 333.24 180.75C330.43 177.38 330.64 173.67 334.52 169.69L367.02 206.87C367.02 201.87 366.89 197.1 367.07 192.29C367.2 188.64 365.7 185.93 363.34 183.29C354.23 173.2 345.25 162.99 336.22 152.84C333 149.07 333 147.22 337 142.61L368.56 178.67C367.76 172.4 366.93 167.24 366.48 162.05C366.163 158.824 364.751 155.803 362.48 153.49C353.55 143.56 344.7 133.57 335.83 123.6C335.08 122.77 333.73 121.92 333.73 121.08C333.878 119.034 334.212 117.005 334.73 115.02C336.22 115.4 338.08 115.36 339.12 116.26C341.306 118.291 343.313 120.506 345.12 122.88C351.2 130.3 357.19 137.78 363.22 145.23Z"
          fill="black"/>
    <path d="M284.91 119.78C283.23 132.5 281.91 145.28 279.81 157.94C275.544 184.12 271.054 210.266 266.34 236.38C265.23 242.6 263.03 248.63 261.22 254.7C260.03 258.7 256.97 260.88 253.04 260.45C246.41 259.71 239.66 258.91 233.31 256.98C221.17 253.27 209.23 248.89 197.31 244.47C192.62 242.74 189.59 243.6 186.44 247.59C178.26 257.96 169.77 268.11 161.14 278.12C154.98 285.27 154.23 285.23 149.57 277.02C141.257 262.4 133.174 247.653 125.32 232.78C124.205 230.409 122.558 228.328 120.505 226.699C118.453 225.07 116.052 223.937 113.49 223.39C101.12 220.16 89.0003 215.8 76.8103 212C63.6503 207.85 62.4203 191.89 70.7503 184.13C75.3226 179.731 80.5143 176.025 86.1603 173.13C111.53 160.64 137 148.28 162.73 136.64C191.73 123.51 221.14 111.1 250.48 98.6398C254.711 96.8706 259.245 95.9401 263.83 95.8998C275.72 95.8398 283.4 103.38 284.38 115.23C284.5 116.72 284.38 118.23 284.38 119.72L284.91 119.78ZM262.64 105L261.39 103.7C259.77 104.22 258.1 104.62 256.54 105.28C237.95 113.08 219.34 120.85 200.79 128.77C165 144.1 129.36 160 94.7903 178C89.5363 180.585 84.5173 183.623 79.7903 187.08C74.0303 191.51 74.1703 196.87 79.8703 201.45C82.8093 203.956 86.1767 205.91 89.8103 207.22C99.6303 210.34 109.67 212.75 119.56 215.67C123.5 216.83 126.39 215.67 129.43 213.21C147.58 198.74 165.87 184.49 184 170C209.007 150 233.947 129.886 258.82 109.66C260.32 108.41 261.37 106.57 262.64 105ZM274.28 120.31L273.07 119.78L191.45 232C194.24 233.37 195.96 234.41 197.81 235.07C209.98 239.45 222.15 243.85 234.4 247.99C237.9 249.17 241.68 249.57 245.4 250.24C248.27 250.76 250.19 249.73 251 246.75C251.81 243.77 253.18 240.61 253.76 237.45C260.034 203.15 266.26 168.84 272.44 134.52C273.28 129.83 273.68 125.05 274.28 120.32V120.31ZM154.28 272.82C161.96 267.82 162.68 266.09 159.57 258.14C154.17 244.34 148.57 230.63 143.03 216.88C142.696 216.231 142.311 215.609 141.88 215.02L130.88 222.57C138.73 239.45 146.5 256.12 154.28 272.83V272.82ZM167.28 259.53C168.467 258.132 169.725 256.797 171.05 255.53C174.25 252.84 174.6 249.95 172.98 246.03C167.72 233.26 162.84 220.34 157.77 207.5C157.15 205.94 156.31 204.5 155.36 202.5C153.345 204.195 151.431 206.008 149.63 207.93C149.238 208.421 148.96 208.994 148.817 209.606C148.673 210.219 148.668 210.855 148.8 211.47C154.74 227.27 160.86 243 167.25 259.54L167.28 259.53ZM184.44 225.4C186.78 222.53 188.44 220.34 190.23 218.4C192.02 216.46 192.23 214.4 191.23 211.97C187.85 203.83 184.67 195.61 181.36 187.44C180.763 186.16 180.096 184.915 179.36 183.71C172.95 186.71 172.13 188.21 174.04 194.18C177.25 204.31 180.73 214.41 184.41 225.41L184.44 225.4ZM177.91 245.09C181.43 241.3 182.17 238.09 180.56 233.69C176.14 221.79 172.27 209.69 168.16 197.69C167.78 196.56 167.26 195.49 166.78 194.35C160.67 198.01 160.57 198.24 162.64 204.46C163.3 206.46 163.99 208.46 164.74 210.46C169 221.82 173.35 233.19 177.88 245.1L177.91 245.09ZM203.97 162.09C201.44 164.29 199.77 165.91 197.97 167.31C195.97 168.87 195.48 170.38 196.57 172.94C199.67 180.27 202.39 187.75 205.29 195.16C205.71 196.066 206.181 196.947 206.7 197.8C208.208 196.115 209.601 194.331 210.87 192.46C211.7 191.08 212.75 189.15 212.37 187.85C209.83 179.54 207 171.33 203.94 162.09H203.97ZM190 174.25C189.165 175.027 188.28 175.749 187.35 176.41C184.2 178.29 184.1 180.58 185.54 183.8C188.11 189.57 190.19 195.56 192.54 201.44C193.74 204.5 195 207.52 196.37 210.9C197.996 209.305 199.522 207.611 200.94 205.83C201.251 205.366 201.461 204.843 201.558 204.294C201.654 203.745 201.635 203.181 201.5 202.64C197.78 193.3 194 184 190 174.25ZM217.78 180.69C220.15 177.5 222.16 174.88 224.04 172.17C224.209 171.868 224.316 171.536 224.356 171.193C224.395 170.85 224.366 170.502 224.27 170.17C221.87 163.44 219.4 156.74 216.83 149.72C214.5 151.83 212.41 153.58 210.52 155.53C210.221 155.878 210.003 156.288 209.882 156.731C209.76 157.174 209.74 157.638 209.82 158.09C212.31 165.4 214.94 172.71 217.77 180.69H217.78ZM235 136.46C231.72 139.2 229 141.38 226.41 143.68C226.096 143.947 225.844 144.28 225.671 144.654C225.498 145.029 225.409 145.437 225.41 145.85C227.14 151.72 229.02 157.55 231.06 164C233.89 160.36 236.29 157.35 238.57 154.26C239.088 153.596 239.325 152.756 239.23 151.92C238 147 236.58 142.12 235 136.46ZM243.79 144.73C247.45 140.58 250.72 137.02 253.79 133.28C254.114 132.781 254.334 132.222 254.437 131.636C254.54 131.05 254.524 130.449 254.39 129.87C253.708 127.497 252.904 125.16 251.98 122.87C241.73 128.01 240.21 131.18 242.88 141.5C243.07 142.36 243.33 143.17 243.79 144.73ZM266.79 110.14C258.57 115.91 257.25 118.91 260.07 125.8C263.15 120.8 270.63 118.22 266.78 110.14H266.79Z"
          fill="black"/>
    <path d="M125.001 51.8696C98.6505 63.0696 82.3806 83.7596 70.2906 108.46C69.4206 110.25 68.5206 112.04 67.7806 113.88C65.7106 119.06 63.2505 119.51 58.0605 116.68C55.8305 115.46 54.8006 113.6 55.8306 111.05C57.2206 107.6 58.3006 103.95 60.1406 100.75C71.5695 80.6019 87.7186 63.5297 107.201 50.9996C109.518 49.5435 111.934 48.2504 114.431 47.1296C120.941 44.1196 122.001 44.5796 125.001 51.8696Z"
          fill="black"/>
</svg>

