<svg width="388" height="387" viewBox="0 0 388 387" fill="none" xmlns="http://www.w3.org/2000/svg">
<path d="M355.428 263.028C316.86 357.598 213.288 404.774 124.093 368.398C34.8974 332.022 -6.14399 225.869 32.4241 131.299C70.9921 36.7289 174.565 -10.4467 263.76 25.9294C352.955 62.3054 393.997 168.458 355.428 263.028Z" fill="white"/>
<path d="M209.068 119.044C230.489 116.328 251.913 113.641 273.331 110.896C277.76 110.335 282.135 109.573 286.554 108.924C291.552 108.172 294.613 110.123 295.627 115.088C297.046 122.074 298.264 129.115 299.512 136.153C301.676 148.553 303.895 160.916 305.914 173.334C308.194 187.348 310.416 201.369 312.492 215.409C314.152 226.629 315.611 237.904 317.012 249.187C317.88 256.272 318.516 263.388 319.184 270.528C319.563 274.448 317.022 277.998 313.249 278.832C304.609 280.757 296.013 282.794 287.344 284.485C276.219 286.666 265.04 288.646 253.853 290.568C245.478 292.014 237.063 293.377 228.634 294.624C209.738 297.404 190.853 300.036 171.95 302.758C161.393 304.274 150.832 305.761 140.282 307.335C130.665 308.792 121.026 310.31 111.424 311.883C106.812 312.645 103.499 310.104 102.46 305.409C101.281 300.08 99.9306 294.802 98.6933 289.481C97.7019 285.165 96.7942 280.808 95.8028 276.492C94.6131 271.313 93.336 266.144 92.1463 260.965C91.3679 257.629 90.677 254.281 89.9023 250.974C88.8961 246.541 87.8354 242.145 86.8292 237.712C86.0471 234.347 85.3197 230.945 84.5668 227.575C83.4945 222.855 82.4259 218.163 81.3536 213.443C80.5383 209.815 79.8104 206.176 79.028 202.574C77.9076 197.474 76.7873 192.375 75.6961 187.272C74.8915 183.495 74.0869 179.717 73.3151 175.966C72.0765 169.934 70.8379 163.902 69.5994 157.87C69.5037 157.349 69.2841 156.784 69.367 156.27C69.7352 154.269 69.0106 152.525 68.3078 150.719C66.6716 146.455 69.2193 142.727 73.3241 141.703C78.7182 140.338 84.0282 138.776 89.4223 137.411C93.5234 136.358 97.6758 135.476 101.825 134.565C107.445 133.35 113.098 132.159 118.726 131.001C122.565 130.218 126.415 129.523 130.273 128.886C150.876 125.563 171.525 122.827 192.269 120.611C197.879 120.018 203.435 119.225 209.03 118.516C209.012 118.607 209.042 118.84 209.068 119.044ZM153.88 196.43C152.794 198.848 151.749 201.112 150.733 203.373C144.569 217.125 138.22 230.812 132.276 244.654C127.061 256.775 122.999 269.343 120.318 282.297C119.512 286.22 118.794 290.131 118.046 294.045C119.008 293.923 120.032 293.823 121.048 293.665C130.633 292.183 140.18 290.647 149.772 289.224C162.446 287.35 175.17 285.648 187.844 283.775C206.19 281.093 224.564 278.409 242.891 275.582C251.984 274.192 261.058 272.656 270.085 270.979C280.386 269.081 290.632 266.982 300.89 264.971C301.815 264.794 302.095 264.433 301.977 263.5C301.333 257.956 300.747 252.404 300.104 246.859C300.041 246.363 299.85 245.795 299.533 245.391C296.432 241.491 293.361 237.586 290.151 233.758C275.454 216.166 258.662 200.735 241.24 185.946C240.277 185.121 239.73 185.249 238.817 185.987C227.26 195.27 215.236 203.901 202.785 211.965C199.775 213.916 196.729 214.184 193.541 212.397C193.253 212.226 192.918 212.15 192.604 212.012C183.667 208.555 174.672 205.106 165.695 201.565C161.764 199.991 157.924 198.197 153.88 196.43ZM100.262 151.436C100.251 151.585 100.237 151.705 100.226 151.855C100.605 152.043 100.959 152.265 101.339 152.454C117.575 160.464 133.76 168.539 150.066 176.392C164.923 183.57 180.046 190.033 195.611 195.551C196.508 195.852 197.226 195.909 198.074 195.358C209.396 187.733 220.434 179.73 231.037 171.101C247.039 158.116 261.881 143.915 275.464 128.423C275.828 128.022 276.126 127.569 276.711 126.814C275.691 126.943 275.108 127.017 274.554 127.087C265.527 128.291 256.522 129.67 247.472 130.699C225.26 133.248 203.015 135.536 180.778 138.118C159.827 140.567 138.963 143.479 118.27 147.731C112.267 148.966 106.265 150.201 100.262 151.436ZM88.0921 164.29C87.9247 164.371 87.7572 164.451 87.5606 164.536C94.5871 196.367 101.643 228.194 108.666 259.996C108.815 260.006 108.994 260.013 109.143 260.024C116.883 235.59 128.566 212.817 138.866 189.42C121.809 181.011 104.963 172.634 88.0921 164.29ZM295.357 214.561C295.496 214.484 295.667 214.433 295.805 214.356C291.967 190.857 288.129 167.357 284.302 143.945C273.877 154.21 263.582 164.339 253.263 174.502C267.995 186.996 282.276 200.14 295.357 214.561Z" fill="black"/>
<path d="M386.741 167.205C384.297 145.47 378.889 124.171 370.669 103.901C362.877 84.5814 353.389 65.1654 337.309 51.3894C314.549 31.8774 289.157 14.7574 260.237 5.9814C230.077 -3.1706 196.861 -0.362601 166.445 6.2694C121.085 16.1654 83.7094 41.4454 55.5734 78.4854C21.2534 123.661 -6.82662 188.005 1.94938 245.781C6.58785 276.221 18.1754 305.183 35.8134 330.421C54.4934 357.061 78.2614 369.949 109.437 378.101C170.445 394.037 240.845 387.381 294.061 351.957C323.581 332.293 344.797 304.573 360.669 273.173C377.629 239.629 390.949 205.485 386.741 167.205ZM360.669 189.029C359.723 218.064 344.567 257.066 328.381 281.189C302.757 319.509 242.882 360.258 196.698 365.226C149.194 370.346 81.0411 352.233 50.3371 307.569C38.8331 290.833 31.63 260.43 27.758 240.638C23.0783 216.527 33.1634 176.11 41.8699 153.144C50.8459 129.608 65.1257 109.701 78.1577 88.1094C96.7048 64.4407 123.138 42.7654 154.362 36.3734C186.69 29.7574 227.437 26.1001 260.237 34.6041C288.469 41.9241 323.237 58.0374 337.309 84.1974C352.845 113.077 361.781 157.829 360.669 189.029Z" fill="black"/>
</svg>
